name Run_200 02_newCOP3_v24.mot
datacolumns 19
datarows 28
range 4.3225 4.336
DataType=double
version=3
OpenSimVersion=4.3-2021-08-27-4bc7ad9
endheader
time	R_ground_force_vx	R_ground_force_vy	R_ground_force_vz	R_ground_force_px	R_ground_force_py	R_ground_force_pz	L_ground_force_vx	L_ground_force_vy	L_ground_force_vz	L_ground_force_px	L_ground_force_py	L_ground_force_pz	R_ground_torque_x	R_ground_torque_y	R_ground_torque_z	L_ground_torque_x	L_ground_torque_y	L_ground_torque_z
4.3225	3.963557	340.36792	8.662941999999999	1.083948	0	-0.459091	-51.319386	273.381317	20.599791	1.085469	0	-0.497525	0	-0.4217	0	-0	1.75652	-0
4.323	3.870354	347.01059	8.662801999999999	1.082474	0	-0.459079	-51.26292	276.206909	20.717798	1.084163	0	-0.497584	0	-0.462057	0	-0	1.753461	-0
4.3235	3.752576	353.713135	8.662122	1.081018	0	-0.45906	-51.236156	279.014862	20.833406	1.082885	0	-0.497642	0	-0.502763	0	-0	1.750885	-0
4.324	3.611529	360.473328	8.661161999999999	1.079583	0	-0.459033	-51.23867	281.803223	20.946505	1.081632	0	-0.497701	0	-0.543812	0	-0	1.748791	-0
4.3245	3.448643	367.288666	8.660175000000001	1.078167	0	-0.458998	-51.269928	284.570099	21.05698	1.080404	0	-0.497759	0	-0.585195	0	-0	1.747177	-0
4.325	3.265462	374.156433	8.659392	1.076773	0	-0.458956	-51.329266	287.313599	21.164717	1.079201	0	-0.497817	0	-0.626905	0	-0	1.746039	-0
4.3255	3.063627	381.073639	8.659033000000001	1.0754	0	-0.458906	-51.415916	290.03186	21.269602	1.07802	0	-0.497876	0	-0.668933	0	-0	1.745373	-0
4.326	2.844866	388.03717	8.659293	1.07405	0	-0.458848	-51.529015	292.723053	21.371515	1.076863	0	-0.497934	0	-0.711272	0	-0	1.745175	-0
4.3265	2.610977	395.043579	8.660354	1.072721	0	-0.458783	-51.66761	295.385406	21.470348	1.075726	0	-0.497993	0	-0.753912	0	-0	1.745438	-0
4.327	2.363816	402.089294	8.662374	1.071415	0	-0.45871	-51.830662	298.017151	21.565987	1.07461	0	-0.498052	0	-0.796844	0	-0	1.746157	-0
4.3275	2.105283	409.170471	8.665490999999999	1.070132	0	-0.45863	-52.017067	300.616608	21.658327	1.073514	0	-0.498111	0	-0.8400609999999999	0	-0	1.747325	-0
4.328	1.837302	416.283142	8.669822	1.068871	0	-0.458544	-52.225655	303.182251	21.747267	1.072435	0	-0.49817	0	-0.883553	0	-0	1.748933	-0
4.3285	1.561816	423.423126	8.675459999999999	1.067634	0	-0.45845	-52.455208	305.712494	21.832714	1.071373	0	-0.49823	0	-0.92731	0	-0	1.750973	-0
4.329	1.280765	430.58606	8.682479000000001	1.066418	0	-0.458351	-52.704472	308.205933	21.914585	1.070327	0	-0.49829	0	-0.971323	0	-0	1.753435	-0
4.3295	0.996077	437.767456	8.690927	1.065225	0	-0.458246	-52.972153	310.661255	21.992805	1.069295	0	-0.49835	0	-1.015583	0	-0	1.756309	-0
4.33	0.709654	444.962646	8.700832999999999	1.064053	0	-0.458136	-53.256943	313.07724	22.067312	1.068277	0	-0.498411	0	-1.060079	0	-0	1.759583	-0
4.3305	0.423359	452.166901	8.712205000000001	1.062903	0	-0.458022	-53.557529	315.452759	22.138054	1.067272	0	-0.498472	0	-1.104801	0	-0	1.763247	-0
4.331	0.139002	459.375336	8.725026	1.061774	0	-0.457903	-53.872585	317.786804	22.204996	1.066277	0	-0.498533	0	-1.14974	0	-0	1.767287	-0
4.3315	-0.141666	466.583008	8.739264	1.060666	0	-0.457781	-54.200802	320.078522	22.268114	1.065293	0	-0.498594	0	-1.194883	0	-0	1.77169	-0
4.332	-0.416968	473.784851	8.754868	1.059577	0	-0.457655	-54.54089	322.327148	22.327406	1.064318	0	-0.498655	0	-1.240221	0	-0	1.776442	-0
4.3325	-0.685307	480.975769	8.771763999999999	1.058508	0	-0.457528	-54.891579	324.532074	22.382879	1.063351	0	-0.498717	0	-1.285743	0	-0	1.781528	-0
4.333	-0.945178	488.150696	8.789866999999999	1.057457	0	-0.457398	-55.25164	326.692749	22.434566	1.062391	0	-0.498778	0	-1.331437	0	-0	1.786934	-0
4.3335	-1.195174	495.304413	8.809077	1.056424	0	-0.457268	-55.619881	328.808868	22.482513	1.061437	0	-0.49884	0	-1.377291	0	-0	1.792642	-0
4.334	-1.433989	502.431824	8.829280000000001	1.055408	0	-0.457137	-55.995163	330.880127	22.526785	1.060489	0	-0.498901	0	-1.423295	0	-0	1.798637	-0
4.3345	-1.660434	509.52774	8.850349	1.054408	0	-0.457006	-56.376396	332.906464	22.567471	1.059546	0	-0.498962	0	-1.469436	0	-0	1.804901	-0
4.335	-1.873429	516.587097	8.872152	1.053424	0	-0.456876	-56.762562	334.887878	22.604673	1.058606	0	-0.499022	0	-1.515702	0	-0	1.811416	-0
4.3355	-2.072017	523.604797	8.894546999999999	1.052454	0	-0.456747	-57.152691	336.824524	22.638521	1.057669	0	-0.499082	0	-1.56208	0	-0	1.818163	-0
4.336	-2.255363	530.575928	8.917389	1.051498	0	-0.45662	-57.545895	338.716614	22.669159	1.056736	0	-0.499142	0	-1.608559	0	-0	1.825124	-0
